<?xml version="1.0" standalone="no"?><!DOCTYPE svg PUBLIC "-//W3C//DTD SVG 1.1//EN" "http://www.w3.org/Graphics/SVG/1.1/DTD/svg11.dtd"><svg t="1586240970329" class="icon" viewBox="0 0 1024 1024" version="1.1" xmlns="http://www.w3.org/2000/svg" p-id="4822" xmlns:xlink="http://www.w3.org/1999/xlink" width="200" height="200"><defs><style type="text/css"></style></defs><path d="M99 679.1c-7.2 0-14-4.4-16.8-11.5-5.1-13.1-9.6-26.6-13.5-40.2-2.7-9.6 2.8-19.5 12.4-22.3 9.6-2.7 19.5 2.8 22.3 12.4 3.6 12.5 7.8 25 12.4 37.1 3.6 9.3-1 19.7-10.3 23.3-2.1 0.8-4.3 1.2-6.5 1.2z" fill="#13227a" p-id="4823"></path><path d="M512 953.4c-86.2 0-165.4-20-235.4-59.4-66-37.2-121.5-91.5-160.6-157-5.1-8.5-2.3-19.6 6.2-24.7 8.5-5.1 19.6-2.3 24.7 6.2C222.4 844.9 355.4 917.4 512 917.4c240.8 0 417.2-170.5 425.7-408H86.4c0.5 12.7 1.5 25.3 2.9 37.7 1.2 9.9-5.9 18.8-15.7 20-9.9 1.2-18.8-5.9-20-15.8-2.3-19.7-3.5-39.8-3.5-59.9 0-9.9 8.1-18 18-18h888c9.9 0 18 8.1 18 18 0 125.2-45.3 241-127.6 326.1-41.4 42.8-90.6 76.3-146.2 99.5-58 24.1-121.4 36.4-188.3 36.4zM693.1 285.9c-7.8 0-15.1-5.2-17.3-13.1-21-74.1-89.5-125.8-166.6-125.8s-145.6 51.7-166.6 125.8c-2.7 9.6-12.7 15.1-22.2 12.4-9.6-2.7-15.1-12.7-12.4-22.2 12.2-42.9 38.5-81.6 74.1-108.9 36.8-28.2 80.8-43.1 127.2-43.1 46.4 0 90.4 14.9 127.2 43.1 35.6 27.3 61.9 66 74.1 108.9 2.7 9.6-2.8 19.5-12.4 22.2-1.8 0.5-3.4 0.7-5.1 0.7z" fill="#13227a" p-id="4824"></path><path d="M908.7 509.4H116.3c-7.9 0-14.9-5.2-17.2-12.7-4.4-14.4-6.6-29.3-6.6-44.4 0-37.7 13.9-73.8 39.2-101.8 21.9-24.3 50.9-40.6 82.6-47 6.6-32.1 23.1-61.5 47.4-84 25.9-24 59.1-38.6 94.1-41.5 39.6-42.6 95-66.9 153.4-66.9 59.3 0 115.3 24.9 154.9 68.7 35.3 1.8 69 15.3 95.7 38.6 25.2 21.9 42.7 51.1 50.2 83.3 32 7.5 61 25 82.8 50.1 24.9 28.6 38.6 65.3 38.6 103.3 0 13.9-1.8 27.8-5.4 41.1-2.1 7.7-9.2 13.2-17.3 13.2z m-778.3-36h763.7c0.9-6.1 1.4-12.3 1.4-18.4 0-59.7-44.5-111.5-103.5-120.3-7.8-1.2-14-7.3-15.1-15.2-8.8-59.3-60.7-104-120.7-104h-0.3-0.1c-5.3 0-10.4-2.4-13.8-6.4-33-39.4-81.4-62-132.8-62-50.5 0-98.3 21.9-131.3 60.2-3.3 3.8-8 6.1-13 6.2-59.9 2-110.2 48.4-117.1 107.9-1 8.4-7.6 15-16 15.8-58.9 6.3-103.3 55.8-103.3 115.1 0 7.1 0.7 14.1 1.9 21.1z" fill="#13227a" p-id="4825"></path><path d="M416.4 288.8m-25.3 0a25.3 25.3 0 1 0 50.6 0 25.3 25.3 0 1 0-50.6 0Z" fill="#13227a" p-id="4826"></path><path d="M551.5 244.6m-25.3 0a25.3 25.3 0 1 0 50.6 0 25.3 25.3 0 1 0-50.6 0Z" fill="#13227a" p-id="4827"></path><path d="M666.8 387.6m-25.3 0a25.3 25.3 0 1 0 50.6 0 25.3 25.3 0 1 0-50.6 0Z" fill="#13227a" p-id="4828"></path><path d="M507.3 372.6m-25.3 0a25.3 25.3 0 1 0 50.6 0 25.3 25.3 0 1 0-50.6 0Z" fill="#13227a" p-id="4829"></path><path d="M323.2 387.6m-25.3 0a25.3 25.3 0 1 0 50.6 0 25.3 25.3 0 1 0-50.6 0Z" fill="#13227a" p-id="4830"></path></svg>